# xmcd CD database file
#
# Track frame offsets:
#	150
#	49100
#	73323
#	107290
#	189128
#	209878
#	229167
#	255866
#
# Disc length: 3758 seconds
#
# Revision: 0
# Processed by: cddbd v1.5.2PL0 Copyright (c) Steve Scherf et al.
# Submitted via: CDex 1.70beta2
#
DISCID=6a0eac08
DTITLE=Günter Sommer | Savina Yannatou | Floros Floridis | Evgenios Voulgaris | Spilios Kastanis - Songs for Kommeno
DYEAR=2012
DGENRE=Jazz
TTITLE0=Tears
TTITLE1=Lost Ring
TTITLE2=Andartes
TTITLE3=Marias Miroloi
TTITLE4=Acheloos
TTITLE5=Lullaby
TTITLE6=Children Song
TTITLE7=Kommeno Today
EXTD=YEAR: 2012
EXTT0=
EXTT1=
EXTT2=
EXTT3=
EXTT4=
EXTT5=
EXTT6=
EXTT7=
PLAYORDER=
